<?xml version="1.0" standalone="no"?>
<!DOCTYPE svg PUBLIC "-//W3C//DTD SVG 20010904//EN"
 "http://www.w3.org/TR/2001/REC-SVG-20010904/DTD/svg10.dtd">
<svg version="1.0" xmlns="http://www.w3.org/2000/svg"
 width="495.000000pt" height="220.000000pt" viewBox="0 0 495.000000 220.000000"
 preserveAspectRatio="xMidYMid meet">

<g transform="translate(0.000000,220.000000) scale(0.100000,-0.100000)"
fill="#000000" stroke="none">
<path d="M1475 2167 c-88 -35 -237 -128 -301 -187 -22 -20 -81 -58 -131 -84
-79 -41 -93 -52 -115 -94 -24 -44 -48 -130 -48 -170 0 -9 12 3 26 28 48 85
119 141 218 172 75 24 445 42 696 35 164 -5 164 -5 80 8 -140 21 -417 38 -573
34 -81 -3 -147 -1 -147 3 0 18 144 133 213 169 123 64 243 91 417 93 158 1
182 -4 257 -57 47 -33 110 -110 167 -203 l37 -61 122 -12 c457 -45 759 -103
905 -173 61 -30 63 -31 83 -12 19 17 36 19 148 17 114 -1 365 -33 395 -50 7
-4 8 -3 1 4 -15 16 -146 58 -285 92 -268 65 -854 146 -1213 167 l-118 7 -43
67 c-24 37 -69 97 -100 133 -31 37 -56 69 -56 72 0 7 4 7 300 -36 281 -40 363
-68 560 -196 98 -64 90 -47 -15 32 -159 119 -229 149 -485 201 l-165 34 -375
0 -375 0 -80 -33z"/>
<path d="M1415 1820 c-93 -4 -197 -13 -229 -19 -101 -19 -187 -80 -256 -183
-62 -94 -53 -101 38 -33 127 96 190 106 298 49 64 -35 77 -37 199 -46 158 -11
829 -1 904 13 29 6 85 25 125 42 83 36 160 41 216 12 19 -9 72 -44 117 -77 46
-32 109 -71 140 -86 55 -25 67 -27 223 -29 l165 -2 -73 14 c-106 20 -181 43
-227 70 -44 25 -145 127 -145 146 0 15 69 5 184 -27 108 -31 191 -71 231 -114
17 -17 43 -41 58 -52 l29 -21 -15 29 c-25 48 -97 124 -137 144 -178 91 -756
163 -1400 174 -151 2 -351 1 -445 -4z"/>
<path d="M3422 1628 c-53 -53 58 -210 181 -256 65 -25 163 -42 227 -41 33 1
21 4 -45 14 -49 6 -108 18 -130 24 -93 29 -177 116 -179 188 l-1 38 185 -2
c264 -4 307 -19 336 -120 l14 -48 -6 49 c-3 27 -11 57 -17 67 -15 25 -73 55
-132 68 -123 28 -411 41 -433 19z"/>
<path d="M1075 1611 c-22 -10 -49 -28 -59 -40 l-19 -21 86 0 87 0 25 -40 c31
-50 31 -66 0 -113 l-26 -37 -86 0 -86 0 24 -26 c29 -32 81 -54 123 -54 41 1
112 33 128 59 13 21 17 21 607 21 l593 0 34 -30 c63 -54 150 -61 216 -16 56
38 48 46 -45 46 l-84 0 -27 49 -26 49 27 46 28 46 83 0 c93 0 100 8 43 47 -69
47 -150 42 -210 -13 l-38 -34 -591 0 -590 0 -32 30 c-31 29 -84 50 -125 50
-11 0 -38 -9 -60 -19z"/>
<path d="M3893 1343 c9 -2 23 -2 30 0 6 3 -1 5 -18 5 -16 0 -22 -2 -12 -5z"/>
<path d="M155 961 c-55 -25 -121 -99 -135 -152 -29 -107 10 -222 96 -282 55
-38 164 -58 202 -36 25 14 27 19 30 98 4 105 -7 121 -83 121 -51 0 -85 -19
-85 -48 0 -20 31 -42 61 -42 24 0 29 -4 29 -25 0 -53 -103 -21 -154 48 -31 42
-30 140 3 186 31 43 92 71 158 71 42 0 54 4 63 20 8 14 8 26 0 40 -9 17 -21
20 -78 20 -43 0 -81 -7 -107 -19z"/>
<path d="M2287 974 c-15 -15 -5 -55 64 -262 72 -217 88 -245 123 -219 17 13
156 416 156 454 0 23 -38 42 -59 29 -5 -3 -33 -77 -62 -164 -29 -86 -54 -152
-56 -147 -3 6 -28 78 -56 160 -48 137 -54 150 -77 153 -14 2 -29 0 -33 -4z"/>
<path d="M3010 961 c-6 -12 -10 -105 -10 -234 0 -198 1 -215 19 -231 15 -14
24 -15 40 -6 18 9 21 20 21 70 l0 60 48 0 c74 0 117 17 155 60 84 92 63 226
-43 280 -57 29 -214 29 -230 1z m204 -82 c38 -30 49 -64 36 -105 -16 -48 -44
-64 -112 -64 l-58 0 0 88 c0 49 3 92 7 95 16 16 101 7 127 -14z"/>
<path d="M4672 968 c-8 -8 -12 -63 -12 -182 0 -147 3 -177 20 -213 21 -48 64
-79 124 -89 34 -5 43 -3 58 16 26 32 8 60 -38 60 -24 0 -43 8 -59 25 -22 22
-25 32 -25 104 l0 80 36 3 c71 6 74 68 4 68 l-40 0 0 58 c0 59 -11 82 -40 82
-9 0 -21 -5 -28 -12z"/>
<path d="M500 839 c-33 -13 -68 -47 -86 -81 -18 -35 -18 -139 0 -182 28 -67
107 -104 183 -84 32 8 47 7 57 -1 11 -9 20 -10 35 -1 19 10 21 20 21 129 0
129 -11 159 -71 204 -31 23 -103 31 -139 16z m102 -83 c46 -35 47 -140 1 -176
-33 -26 -66 -25 -98 3 -25 21 -31 50 -26 130 3 47 82 75 123 43z"/>
<path d="M883 834 c-69 -35 -92 -89 -93 -220 0 -74 3 -96 18 -114 16 -19 22
-21 40 -11 21 11 22 19 22 120 0 129 11 151 80 160 49 7 71 31 54 59 -15 23
-80 26 -121 6z"/>
<path d="M1145 836 c-37 -16 -70 -52 -84 -89 -16 -42 -13 -134 5 -173 32 -68
112 -104 183 -83 27 8 44 8 58 1 15 -8 25 -8 37 1 16 11 17 29 14 137 -3 143
-13 165 -84 200 -46 23 -86 25 -129 6z m115 -86 c41 -41 39 -129 -5 -167 -32
-29 -65 -29 -99 -2 -23 18 -26 27 -26 82 0 49 4 65 22 84 27 29 80 31 108 3z"/>
<path d="M1502 834 c-67 -34 -99 -108 -87 -202 5 -42 14 -62 42 -93 36 -40 97
-65 133 -55 11 4 29 9 40 12 29 8 26 -31 -5 -61 -35 -36 -71 -32 -111 11 -23
24 -41 34 -56 32 -33 -4 -37 -52 -7 -84 21 -22 30 -24 125 -24 l103 0 23 32
c22 31 23 42 23 190 0 171 -4 184 -67 231 -36 27 -114 32 -156 11z m125 -86
c19 -18 23 -32 23 -80 0 -49 -4 -63 -25 -83 -33 -33 -70 -32 -106 4 -24 25
-29 37 -29 81 0 41 5 56 25 75 31 32 80 33 112 3z"/>
<path d="M1851 832 c-57 -28 -75 -63 -79 -148 -5 -86 7 -123 50 -159 63 -53
148 -51 210 4 23 20 29 32 24 48 -11 33 -36 36 -76 8 -44 -30 -69 -32 -104 -4
-49 39 -36 48 77 51 l102 3 3 55 c2 45 -2 63 -20 90 -27 40 -79 70 -123 70
-16 0 -45 -8 -64 -18z m111 -79 c34 -41 32 -43 -41 -43 -75 0 -85 8 -54 42 21
23 75 24 95 1z"/>
<path d="M3465 837 c-39 -19 -64 -47 -81 -94 -52 -146 53 -289 186 -253 29 8
46 8 61 0 17 -9 25 -8 41 7 18 16 20 28 16 128 -3 120 -17 159 -70 198 -33 25
-113 32 -153 14z m120 -92 c21 -20 25 -34 25 -80 0 -48 -4 -60 -26 -80 -31
-29 -53 -31 -93 -10 -35 17 -41 32 -41 96 0 61 31 99 80 99 19 0 40 -9 55 -25z"/>
<path d="M3870 839 c-14 -6 -36 -20 -48 -32 -44 -41 -52 -69 -52 -191 0 -108
1 -116 22 -127 18 -10 24 -8 40 11 15 18 18 41 18 124 0 94 2 104 23 124 14
13 36 22 54 22 18 0 39 7 47 16 19 18 19 20 6 45 -12 21 -66 25 -110 8z"/>
<path d="M4143 834 c-70 -35 -92 -89 -93 -225 0 -82 3 -98 19 -113 15 -14 24
-15 40 -6 19 10 21 19 21 119 0 129 11 151 80 160 49 7 71 31 54 59 -15 23
-80 26 -121 6z"/>
<path d="M4405 836 c-65 -29 -95 -84 -95 -174 0 -95 51 -160 136 -176 47 -9
120 26 151 73 19 27 23 48 23 105 0 90 -21 132 -80 163 -49 26 -91 29 -135 9z
m115 -86 c41 -41 39 -129 -5 -167 -32 -29 -65 -29 -99 -2 -23 18 -26 27 -26
82 0 49 4 65 22 84 27 29 80 31 108 3z"/>
<path d="M2678 588 c-30 -24 -31 -56 -4 -83 30 -30 36 -31 70 -4 31 24 33 52
6 79 -23 23 -49 26 -72 8z"/>
</g>
</svg>
