<?xml version="1.0" standalone="no"?>
<!DOCTYPE svg PUBLIC "-//W3C//DTD SVG 20010904//EN"
 "http://www.w3.org/TR/2001/REC-SVG-20010904/DTD/svg10.dtd">
<svg version="1.0" xmlns="http://www.w3.org/2000/svg"
 width="300.000000pt" height="115.000000pt" viewBox="0 0 300.000000 115.000000"
 preserveAspectRatio="xMidYMid meet">
<metadata>
Created by potrace 1.10, written by Peter Selinger 2001-2011
</metadata>
<g transform="translate(0.000000,115.000000) scale(0.100000,-0.100000)"
fill="white" stroke="none">
<path d="M919 1140 c-45 -13 -146 -71 -188 -106 -22 -19 -66 -49 -98 -67 -63
-35 -87 -70 -98 -142 l-6 -40 17 30 c27 50 64 82 118 106 49 22 63 23 308 24
141 0 256 1 255 2 -10 9 -222 24 -352 24 -165 1 -166 1 -149 20 35 39 137 99
201 119 90 28 264 28 309 1 33 -20 89 -85 119 -138 17 -28 24 -32 79 -38 288
-30 477 -64 551 -100 38 -18 52 -21 63 -13 19 16 165 12 255 -7 87 -18 102
-18 62 -1 -116 50 -571 126 -853 143 -94 5 -115 9 -123 24 -5 10 -32 48 -60
85 l-51 66 53 -7 c257 -32 345 -58 456 -132 83 -56 94 -60 45 -16 -97 88 -219
139 -386 162 -89 13 -488 13 -527 1z"/>
<path d="M737 910 c-40 -5 -72 -17 -99 -36 -43 -31 -106 -110 -95 -120 3 -4
23 7 44 23 78 62 110 66 188 28 50 -25 52 -25 348 -25 280 0 301 1 355 21 115
43 149 37 265 -46 64 -45 103 -55 217 -54 l95 1 -75 14 c-41 7 -88 19 -105 26
-33 13 -115 85 -115 100 0 26 191 -34 238 -75 20 -18 46 -39 56 -47 20 -15 20
-15 0 19 -55 96 -164 127 -578 166 -167 16 -631 19 -739 5z m721 -36 c34 -4
62 -10 62 -13 0 -4 -24 -16 -52 -26 -48 -18 -82 -20 -344 -20 -286 0 -291 0
-342 24 -28 13 -49 27 -47 31 2 4 23 7 46 8 23 1 45 5 48 8 7 8 539 -3 629
-12z"/>
<path d="M2072 797 c-26 -31 39 -122 109 -151 49 -20 129 -30 183 -22 75 12
52 21 -41 18 -76 -2 -94 0 -133 20 -47 24 -93 81 -88 107 3 13 19 16 98 13
182 -4 205 -13 219 -83 l9 -44 1 41 c2 80 -41 101 -229 111 -97 5 -117 3 -128
-10z"/>
<path d="M632 784 c-33 -23 -27 -29 29 -29 44 0 52 -3 67 -27 16 -26 16 -30 0
-55 -14 -24 -25 -29 -75 -33 l-57 -5 29 -20 c40 -26 96 -25 134 3 30 22 34 22
387 22 356 0 358 0 381 -22 31 -29 89 -30 129 -3 l29 20 -56 3 c-49 3 -57 6
-73 32 -16 29 -16 31 1 60 15 27 22 30 68 30 l50 1 -24 19 c-32 27 -91 26
-127 -2 -28 -23 -33 -23 -384 -26 l-355 -4 -24 26 c-29 31 -93 36 -129 10z
m874 -67 c4 -4 8 -15 9 -25 1 -17 -20 -18 -372 -19 l-373 0 0 27 0 26 365 -1
c200 0 367 -4 371 -8z"/>
<path d="M1393 413 c-20 -7 -16 -28 31 -168 59 -176 66 -175 128 9 26 76 45
142 42 147 -3 5 -14 9 -24 9 -16 0 -25 -17 -46 -87 -15 -49 -30 -91 -34 -96
-3 -4 -19 34 -35 83 -30 93 -41 111 -62 103z"/>
<path d="M2834 409 c-4 -7 -6 -65 -5 -128 2 -115 2 -116 32 -144 44 -41 108
-34 91 11 -2 6 -17 12 -33 12 -34 0 -49 23 -49 79 0 36 3 40 28 43 38 4 38 42
0 46 -24 3 -27 8 -30 44 -3 42 -20 60 -34 37z"/>
<path d="M69 386 c-47 -32 -63 -72 -57 -141 4 -44 11 -62 33 -85 33 -34 85
-53 130 -48 30 3 30 3 30 68 l0 65 -45 0 c-39 0 -45 -3 -48 -22 -3 -19 1 -23
22 -23 20 0 26 -5 26 -21 0 -18 -4 -20 -27 -14 -75 18 -103 109 -51 162 20 19
41 29 75 33 40 4 49 9 51 28 3 20 0 22 -50 22 -40 0 -62 -6 -89 -24z"/>
<path d="M1824 397 c-2 -7 -3 -74 -2 -148 3 -126 4 -134 23 -134 16 0 21 8 23
43 3 41 5 43 28 38 31 -8 87 15 108 45 27 39 21 102 -13 138 -27 29 -34 31
-95 31 -46 0 -68 -4 -72 -13z m130 -53 c19 -19 21 -68 4 -82 -7 -5 -30 -12
-50 -14 l-38 -4 0 58 0 58 34 0 c19 0 42 -7 50 -16z"/>
<path d="M2361 330 c-61 -14 -76 -39 -76 -133 0 -75 2 -82 20 -82 18 0 20 8
23 73 3 64 6 74 27 88 13 9 28 13 33 10 6 -3 15 1 23 10 20 24 -7 43 -50 34z"/>
<path d="M2531 329 c-55 -12 -71 -41 -71 -136 0 -76 2 -83 20 -83 22 0 23 3
21 80 -3 62 13 92 50 96 13 1 27 3 32 3 12 2 8 39 -5 43 -7 3 -28 1 -47 -3z"/>
<path d="M269 301 c-23 -23 -29 -38 -29 -71 0 -85 42 -121 135 -117 l50 2 3
79 c3 74 1 81 -24 107 -39 41 -94 40 -135 0z m92 -21 c14 -8 19 -21 19 -53 0
-24 -5 -48 -12 -55 -15 -15 -51 -15 -66 0 -17 17 -15 78 5 100 19 21 27 22 54
8z"/>
<path d="M509 300 c-29 -28 -30 -32 -27 -107 3 -70 5 -78 23 -78 18 0 20 8 23
70 3 75 22 110 54 102 20 -6 43 17 33 33 -3 5 -22 10 -41 10 -26 0 -44 -8 -65
-30z"/>
<path d="M665 305 c-17 -16 -25 -36 -26 -62 -2 -66 1 -77 31 -105 27 -25 36
-27 92 -25 l63 3 3 63 c5 104 -26 151 -101 151 -27 0 -45 -7 -62 -25z m93 -31
c40 -28 24 -114 -23 -114 -52 0 -75 70 -35 110 24 24 29 24 58 4z"/>
<path d="M886 304 c-21 -22 -26 -36 -26 -80 0 -74 30 -109 94 -109 46 0 57
-10 34 -33 -18 -18 -53 -14 -73 8 -10 11 -24 20 -32 20 -22 0 -27 -29 -8 -50
14 -16 31 -20 81 -20 85 0 94 13 94 138 0 90 -1 95 -29 123 -40 39 -97 41
-135 3z m96 -31 c21 -19 25 -82 6 -101 -19 -19 -56 -14 -72 11 -19 28 -14 77
10 94 23 17 34 16 56 -4z"/>
<path d="M1109 317 c-59 -45 -49 -165 16 -195 14 -7 36 -12 49 -12 28 0 76 35
76 56 0 16 -45 20 -55 4 -14 -22 -75 -4 -75 22 0 4 29 8 65 8 l65 0 0 40 c0
55 -34 90 -87 90 -21 0 -45 -6 -54 -13z m79 -39 c22 -22 12 -33 -28 -33 -43 0
-53 16 -22 34 23 14 36 13 50 -1z"/>
<path d="M2083 315 c-28 -20 -47 -78 -39 -120 4 -20 19 -44 37 -59 26 -22 39
-25 87 -24 31 2 59 6 62 9 3 4 3 44 0 89 -4 71 -8 84 -29 101 -28 23 -88 25
-118 4z m85 -41 c15 -10 22 -25 22 -49 0 -39 -22 -65 -55 -65 -47 0 -63 86
-23 114 12 9 25 16 28 16 3 0 16 -7 28 -16z"/>
<path d="M2639 301 c-23 -23 -29 -38 -29 -71 0 -104 94 -158 161 -91 24 25 29
38 29 79 0 70 -35 112 -92 112 -30 0 -46 -7 -69 -29z m94 -23 c20 -16 26 -81
8 -102 -16 -19 -52 -21 -69 -4 -17 17 -15 78 5 100 19 21 33 23 56 6z"/>
<path d="M1614 166 c-11 -28 1 -51 25 -51 32 0 49 28 32 49 -17 20 -50 21 -57
2z"/>
</g>
</svg>
